<svg width="200" height="55" viewBox="0 0 200 55" fill="none" xmlns="http://www.w3.org/2000/svg">
<path d="M12.0879 3.57715C16.8498 3.57715 20.1465 6.34951 20.1465 10.2845C20.1465 13.0568 17.7656 15.4715 15.4762 15.8292C18.2234 16.1869 21.8864 18.8698 21.8864 22.8048C21.8864 27.5446 18.4982 30.8536 12.6373 30.8536H1.55676V3.57715H12.0879ZM11.4469 14.9349C14.652 14.9349 16.8498 12.9674 16.8498 10.5528C16.8498 7.95926 14.652 6.26008 11.4469 6.26008H4.85347V14.8454L11.4469 14.9349ZM12.5458 28.0812C16.0256 28.0812 18.5897 26.0243 18.5897 22.8048C18.5897 19.6747 15.7509 17.4389 12.3626 17.4389H4.85347V28.0812H12.5458Z" fill="#005FAD"/>
<path d="M35.5311 3.57715H32.2344V30.943H35.5311V3.57715Z" fill="#005FAD"/>
<path d="M60.0733 2.95117C68.1319 2.95117 74.6337 8.94304 74.6337 17.1707C74.6337 25.3983 68.1319 31.3902 60.0733 31.3902C52.0146 31.3902 45.5128 25.3983 45.5128 17.1707C45.5128 8.94304 52.0146 2.95117 60.0733 2.95117ZM60.0733 28.2601C66.3919 28.2601 71.2454 23.6991 71.2454 17.1707C71.2454 10.5528 66.3919 6.08125 60.0733 6.08125C53.7546 6.08125 48.9011 10.5528 48.9011 17.1707C48.9011 23.7886 53.663 28.2601 60.0733 28.2601Z" fill="#005FAD"/>
<path d="M106.593 3.57715V30.943H103.48L91.0256 14.4877C88.6447 11.2682 86.9047 8.76414 86.8132 8.76414C86.8132 8.76414 86.9047 12.1625 86.9047 16.5446V30.8536H83.608V3.57715H86.7216L99.1758 19.943C101.282 22.7154 103.297 25.5772 103.388 25.5772C103.388 25.5772 103.297 21.9105 103.297 17.9755V3.57715H106.593Z" fill="#005FAD"/>
<path d="M122.07 3.57715H118.773V30.943H122.07V3.57715Z" fill="#005FAD"/>
<path d="M152.747 30.8536L142.125 16.8129L137.546 21.2845V30.8536H134.249V3.57715H137.546V10.9105C137.546 15.2926 137.454 17.5284 137.546 17.5284C137.546 17.5284 140.11 15.0243 142.216 12.878L151.74 3.57715H155.769L144.322 14.756L156.593 30.943L152.747 30.8536Z" fill="#005FAD"/>
<path d="M74.9084 41.7642V52.2276H73.3516V41.7642H74.9084Z" fill="#005FAD"/>
<path d="M76.9231 52.2278V46.8619C76.9231 45.9676 77.1978 45.3416 77.7473 44.9838C78.2967 44.6261 79.2125 44.4473 80.403 44.4473C81.5934 44.4473 82.5092 44.6261 83.0586 44.9838C83.6081 45.3416 83.8828 45.9676 83.8828 46.8619V52.2278H82.326V47.1302C82.326 46.8619 82.326 46.683 82.326 46.5042C82.326 46.3253 82.2344 46.1465 82.1429 46.057C82.0513 45.9676 81.8681 45.8782 81.5934 45.7887C81.3187 45.6993 80.9524 45.6993 80.5861 45.6993C80.2198 45.6993 79.7619 45.6993 79.5788 45.7887C79.304 45.8782 79.1209 45.9676 79.0293 46.057C78.9378 46.1465 78.8462 46.3253 78.8462 46.5042C78.8462 46.683 78.8462 46.9513 78.8462 47.1302V52.2278H76.9231Z" fill="#005FAD"/>
<path d="M90.2015 49.2764L87.3626 44.2682V52.317H85.8058V41.7642H87.5458L91.0256 47.756L94.2308 41.7642H96.0623V52.2276H94.5055V44.0894L91.6667 49.2764H90.2015Z" fill="#005FAD"/>
<path d="M101.465 44.4473C102.106 44.4473 102.656 44.5367 103.114 44.6261C103.571 44.7156 103.938 44.8944 104.212 45.2521C104.487 45.6099 104.762 45.8782 104.854 46.4147C104.945 46.9513 105.037 47.4879 105.037 48.2034V49.0082C105.037 49.7237 104.945 50.2603 104.854 50.7969C104.762 51.3334 104.487 51.6017 104.212 51.9595C103.938 52.3172 103.571 52.4066 103.114 52.5855C102.656 52.6749 102.106 52.7643 101.465 52.7643C100.824 52.7643 100.275 52.6749 99.8169 52.5855C99.359 52.496 98.9927 52.3172 98.718 51.9595C98.4433 51.6912 98.1685 51.3334 98.0769 50.7969C97.9854 50.3497 97.8938 49.7237 97.8938 49.0082V48.2034C97.8938 47.4879 97.9854 46.9513 98.0769 46.4147C98.1685 45.9676 98.4433 45.6099 98.718 45.2521C98.9927 44.9838 99.359 44.805 99.8169 44.6261C100.275 44.4473 100.824 44.4473 101.465 44.4473ZM103.48 48.0245C103.48 47.4879 103.48 47.1302 103.388 46.7725C103.297 46.5042 103.205 46.2359 103.114 46.057C102.93 45.8782 102.747 45.7887 102.473 45.6993C102.198 45.6099 101.832 45.6099 101.465 45.6099C101.099 45.6099 100.733 45.6099 100.458 45.6993C100.183 45.7887 100 45.8782 99.8169 46.057C99.6337 46.2359 99.5421 46.5042 99.5421 46.7725C99.5421 47.0408 99.4506 47.4879 99.4506 48.0245V48.8294C99.4506 49.366 99.4506 49.7237 99.5421 50.0814C99.6337 50.4391 99.7253 50.618 99.8169 50.7969C100 50.9757 100.183 51.0652 100.458 51.1546C100.733 51.244 101.099 51.244 101.465 51.244C101.832 51.244 102.198 51.244 102.473 51.1546C102.747 51.0652 102.93 50.9757 103.114 50.7969C103.297 50.618 103.388 50.3497 103.388 50.0814C103.48 49.8131 103.48 49.366 103.48 48.8294V48.0245Z" fill="#005FAD"/>
<path d="M106.685 42.8374L108.242 42.5691V44.626H111.081L110.806 45.878H108.242V49.4553C108.242 49.813 108.242 50.0813 108.333 50.2602C108.333 50.439 108.425 50.6179 108.516 50.7073C108.608 50.7967 108.791 50.8862 108.974 50.8862C109.158 50.8862 109.432 50.9756 109.707 50.9756H111.081L110.806 52.2276H109.707C109.066 52.2276 108.608 52.2276 108.242 52.1382C107.875 52.0488 107.509 51.8699 107.326 51.691C107.143 51.5122 106.96 51.1545 106.868 50.8862C106.777 50.5284 106.777 50.0813 106.777 49.5447L106.685 42.8374Z" fill="#005FAD"/>
<path d="M114.103 42.3902C114.103 42.748 114.011 43.0163 113.828 43.1057C113.645 43.2845 113.462 43.374 113.095 43.374C112.729 43.374 112.454 43.2845 112.363 43.1057C112.179 42.9268 112.088 42.748 112.088 42.3902C112.088 42.0325 112.179 41.7642 112.363 41.6748C112.546 41.4959 112.729 41.4065 113.095 41.4065C113.462 41.4065 113.736 41.4959 113.828 41.6748C114.011 41.7642 114.103 42.0325 114.103 42.3902ZM112.271 44.626H113.828V52.2276H112.271V44.626Z" fill="#005FAD"/>
<path d="M119.139 44.4473C119.78 44.4473 120.33 44.5367 120.788 44.6261C121.245 44.7156 121.612 44.8944 121.886 45.2521C122.161 45.6099 122.436 45.8782 122.527 46.4147C122.619 46.9513 122.711 47.4879 122.711 48.2034V49.0082C122.711 49.7237 122.619 50.2603 122.527 50.7969C122.436 51.3334 122.161 51.6017 121.886 51.9595C121.612 52.3172 121.245 52.4066 120.788 52.5855C120.33 52.6749 119.78 52.7643 119.139 52.7643C118.498 52.7643 117.949 52.6749 117.491 52.5855C117.033 52.496 116.667 52.3172 116.392 51.9595C116.117 51.6912 115.842 51.3334 115.751 50.7969C115.659 50.3497 115.568 49.7237 115.568 49.0082V48.2034C115.568 47.4879 115.659 46.9513 115.751 46.4147C115.842 45.9676 116.117 45.6099 116.392 45.2521C116.667 44.9838 117.033 44.805 117.491 44.6261C117.857 44.4473 118.407 44.4473 119.139 44.4473ZM121.154 48.0245C121.154 47.4879 121.154 47.1302 121.062 46.7725C120.971 46.5042 120.879 46.2359 120.788 46.057C120.604 45.8782 120.421 45.7887 120.147 45.6993C119.872 45.6099 119.505 45.6099 119.139 45.6099C118.773 45.6099 118.407 45.6099 118.132 45.6993C117.857 45.7887 117.674 45.8782 117.491 46.057C117.308 46.2359 117.216 46.5042 117.216 46.7725C117.216 47.0408 117.125 47.4879 117.125 48.0245V48.8294C117.125 49.366 117.125 49.7237 117.216 50.0814C117.308 50.4391 117.399 50.618 117.491 50.7969C117.674 50.9757 117.857 51.0652 118.132 51.1546C118.407 51.244 118.773 51.244 119.139 51.244C119.505 51.244 119.872 51.244 120.147 51.1546C120.421 51.0652 120.604 50.9757 120.788 50.7969C120.971 50.618 121.062 50.3497 121.062 50.0814C121.154 49.8131 121.154 49.366 121.154 48.8294V48.0245Z" fill="#005FAD"/>
<path d="M124.359 52.2278V46.8619C124.359 45.9676 124.634 45.3416 125.183 44.9838C125.733 44.6261 126.648 44.4473 127.839 44.4473C129.029 44.4473 129.945 44.6261 130.495 44.9838C131.044 45.3416 131.319 45.9676 131.319 46.8619V52.2278H129.762V47.1302C129.762 46.8619 129.762 46.683 129.762 46.5042C129.762 46.3253 129.67 46.1465 129.579 46.057C129.487 45.9676 129.304 45.8782 129.029 45.7887C128.755 45.6993 128.388 45.6993 128.022 45.6993C127.564 45.6993 127.198 45.6993 127.015 45.7887C126.74 45.8782 126.557 45.9676 126.465 46.057C126.374 46.1465 126.282 46.3253 126.282 46.5042C126.282 46.683 126.282 46.9513 126.282 47.1302V52.2278H124.359Z" fill="#005FAD"/>
<path d="M136.905 45.0731C136.905 45.5202 136.813 45.878 136.722 46.2357C136.63 46.504 136.447 46.7723 136.264 46.9511C136.081 47.13 135.806 47.3089 135.44 47.3983C135.073 47.4877 134.707 47.4877 134.249 47.4877C133.791 47.4877 133.425 47.4877 133.059 47.3983C132.692 47.3089 132.509 47.2194 132.234 46.9511C132.051 46.7723 131.868 46.504 131.777 46.2357C131.685 45.9674 131.593 45.5202 131.593 45.0731C131.593 44.6259 131.685 44.2682 131.777 43.9105C131.868 43.5528 132.051 43.3739 132.234 43.195C132.418 43.0162 132.692 42.8373 133.059 42.7479C133.333 42.6584 133.791 42.6584 134.249 42.6584C134.707 42.6584 135.073 42.6584 135.44 42.7479C135.714 42.8373 135.989 42.9267 136.264 43.195C136.538 43.4633 136.63 43.6422 136.722 43.9105C136.813 44.1788 136.905 44.6259 136.905 45.0731ZM132.509 45.0731C132.509 45.4308 132.509 45.6991 132.601 45.9674C132.692 46.2357 132.784 46.4145 132.875 46.504C132.967 46.5934 133.242 46.7723 133.425 46.7723C133.608 46.7723 133.974 46.8617 134.341 46.8617C134.707 46.8617 134.982 46.8617 135.256 46.7723C135.531 46.6828 135.714 46.5934 135.806 46.504C135.897 46.4145 136.081 46.1463 136.081 45.9674C136.172 45.6991 136.172 45.4308 136.172 45.0731C136.172 44.7154 136.172 44.4471 136.081 44.1788C135.989 43.9105 135.897 43.7316 135.806 43.6422C135.623 43.4633 135.44 43.3739 135.256 43.3739C135.073 43.3739 134.707 43.2845 134.341 43.2845C133.974 43.2845 133.7 43.2845 133.425 43.3739C133.15 43.4633 132.967 43.5528 132.875 43.6422C132.692 43.821 132.601 43.9999 132.601 44.1788C132.601 44.3576 132.509 44.7154 132.509 45.0731ZM135.44 44.6259C135.44 44.8048 135.44 44.9837 135.348 45.0731C135.256 45.1625 135.165 45.2519 134.982 45.3414L135.531 46.2357H134.799L134.341 45.4308H134.066V46.2357H133.425V43.7316H134.615C134.89 43.7316 135.073 43.821 135.256 43.9105C135.44 43.9999 135.44 44.1788 135.44 44.4471V44.6259ZM134.707 44.5365C134.707 44.4471 134.707 44.3576 134.615 44.2682C134.524 44.2682 134.432 44.1788 134.341 44.1788H133.974V44.8048H134.341C134.524 44.8048 134.615 44.8048 134.615 44.7154C134.707 44.8048 134.707 44.8048 134.707 44.5365Z" fill="#005FAD"/>
<path d="M141.667 52.2276H140.11V41.7642H144.139C145.421 41.7642 146.337 42.0325 146.978 42.4796C147.619 42.9268 147.894 43.7316 147.894 44.7154V45.1625C147.894 45.9674 147.711 46.5934 147.344 47.0406C146.978 47.4877 146.429 47.8455 145.696 47.9349L148.352 52.2276H146.52L144.139 48.1138H141.758L141.667 52.2276ZM146.245 44.8942C146.245 44.5365 146.245 44.1788 146.154 43.9999C146.062 43.8211 145.971 43.5528 145.788 43.4633C145.604 43.3739 145.421 43.2845 145.147 43.1951C144.872 43.1951 144.505 43.1056 144.139 43.1056H141.667V46.7723H144.139C144.505 46.7723 144.872 46.7723 145.147 46.6829C145.421 46.5934 145.604 46.5934 145.788 46.4146C145.971 46.2357 146.062 46.0568 146.154 45.878C146.154 45.6991 146.245 45.3414 146.245 44.8942Z" fill="#808184"/>
<path d="M152.656 44.4473C153.297 44.4473 153.846 44.5367 154.304 44.6261C154.762 44.7156 155.128 44.8944 155.403 45.2521C155.678 45.5204 155.952 45.8782 156.044 46.4147C156.136 46.9513 156.227 47.4879 156.227 48.2034V49.0082C156.227 49.7237 156.136 50.2603 156.044 50.7969C155.952 51.3334 155.678 51.6017 155.403 51.9595C155.128 52.2278 154.762 52.4066 154.304 52.5855C153.846 52.6749 153.297 52.7643 152.656 52.7643C152.015 52.7643 151.465 52.6749 151.007 52.5855C150.549 52.496 150.183 52.3172 149.908 51.9595C149.634 51.6017 149.359 51.3334 149.267 50.7969C149.176 50.2603 149.084 49.7237 149.084 49.0082V48.2034C149.084 47.4879 149.176 46.9513 149.267 46.4147C149.359 45.8782 149.634 45.6099 149.908 45.2521C150.183 44.8944 150.549 44.805 151.007 44.6261C151.465 44.4473 152.015 44.4473 152.656 44.4473ZM154.67 48.0245C154.67 47.4879 154.67 47.1302 154.579 46.7725C154.487 46.4147 154.396 46.2359 154.304 46.057C154.121 45.8782 153.938 45.7887 153.663 45.6993C153.388 45.6099 153.022 45.6099 152.656 45.6099C152.289 45.6099 151.923 45.6099 151.648 45.6993C151.374 45.7887 151.19 45.8782 151.007 46.057C150.824 46.2359 150.733 46.5042 150.733 46.7725C150.733 47.0408 150.641 47.4879 150.641 48.0245V48.8294C150.641 49.366 150.641 49.7237 150.733 50.0814C150.824 50.4391 150.916 50.618 151.007 50.7969C151.19 50.9757 151.374 51.0652 151.648 51.1546C151.923 51.244 152.289 51.244 152.656 51.244C153.022 51.244 153.388 51.244 153.663 51.1546C153.938 51.0652 154.121 50.9757 154.304 50.7969C154.487 50.618 154.579 50.3497 154.579 50.0814C154.579 49.8131 154.67 49.366 154.67 48.8294V48.0245Z" fill="#808184"/>
<path d="M161.355 44.4471C161.996 44.4471 162.546 44.5366 163.004 44.7154C163.462 44.8943 163.828 45.0732 164.103 45.4309C164.377 45.6992 164.56 46.1463 164.652 46.5935C164.744 47.0406 164.835 47.5772 164.835 48.2032V49.0081C164.835 49.6341 164.744 50.1707 164.652 50.6179C164.56 51.065 164.377 51.4228 164.103 51.7805C163.828 52.0488 163.462 52.3171 163.004 52.4959C162.546 52.6748 161.905 52.6748 161.172 52.6748C160.531 52.6748 159.982 52.5854 159.615 52.4959C159.158 52.4065 158.791 52.1382 158.517 51.8699C158.242 51.6016 157.967 51.2439 157.875 50.7073C157.784 50.2602 157.692 49.6341 157.692 48.9187V41.4065H159.249V45.0732C159.524 44.8943 159.799 44.7154 160.073 44.626C160.348 44.5366 160.806 44.4471 161.355 44.4471ZM161.264 45.6992C160.806 45.6992 160.44 45.6992 160.256 45.7886C159.982 45.878 159.799 45.9675 159.615 46.1463C159.432 46.3252 159.341 46.5041 159.341 46.7723C159.341 47.0406 159.249 47.3984 159.249 47.7561V48.8293C159.249 49.3658 159.249 49.7236 159.341 50.0813C159.432 50.3496 159.524 50.6179 159.615 50.7967C159.799 50.9756 159.982 51.065 160.256 51.1545C160.531 51.2439 160.897 51.2439 161.264 51.2439C161.63 51.2439 161.996 51.2439 162.271 51.1545C162.546 51.065 162.729 50.9756 162.912 50.7967C163.095 50.6179 163.187 50.439 163.278 50.0813C163.37 49.7236 163.37 49.3658 163.37 48.8293V48.1138C163.37 47.5772 163.37 47.1301 163.278 46.8618C163.187 46.5935 163.095 46.3252 163.004 46.1463C162.821 45.9675 162.637 45.878 162.363 45.7886C162.088 45.6992 161.63 45.6992 161.264 45.6992Z" fill="#808184"/>
<path d="M169.506 44.4473C170.147 44.4473 170.696 44.5367 171.154 44.6261C171.612 44.7156 171.978 44.8944 172.253 45.2521C172.527 45.5204 172.802 45.8782 172.894 46.4147C172.985 46.9513 173.077 47.4879 173.077 48.2034V49.0082C173.077 49.7237 172.985 50.2603 172.894 50.7969C172.802 51.3334 172.527 51.6017 172.253 51.9595C171.978 52.2278 171.612 52.4066 171.154 52.5855C170.696 52.6749 170.147 52.7643 169.506 52.7643C168.864 52.7643 168.315 52.6749 167.857 52.5855C167.399 52.496 167.033 52.3172 166.758 51.9595C166.484 51.6017 166.209 51.3334 166.117 50.7969C166.026 50.2603 165.934 49.7237 165.934 49.0082V48.2034C165.934 47.4879 166.026 46.9513 166.117 46.4147C166.209 45.8782 166.484 45.6099 166.758 45.2521C167.033 44.8944 167.399 44.805 167.857 44.6261C168.315 44.4473 168.864 44.4473 169.506 44.4473ZM171.612 48.0245C171.612 47.4879 171.612 47.1302 171.52 46.7725C171.429 46.4147 171.337 46.2359 171.245 46.057C171.062 45.8782 170.879 45.7887 170.604 45.6993C170.33 45.6099 169.963 45.6099 169.597 45.6099C169.231 45.6099 168.864 45.6099 168.59 45.6993C168.315 45.7887 168.132 45.8782 167.949 46.057C167.766 46.2359 167.674 46.5042 167.674 46.7725C167.674 47.0408 167.582 47.4879 167.582 48.0245V48.8294C167.582 49.366 167.582 49.7237 167.674 50.0814C167.766 50.4391 167.857 50.618 167.949 50.7969C168.132 50.9757 168.315 51.0652 168.59 51.1546C168.864 51.244 169.231 51.244 169.597 51.244C169.963 51.244 170.33 51.244 170.604 51.1546C170.879 51.0652 171.062 50.9757 171.245 50.7969C171.429 50.618 171.52 50.3497 171.52 50.0814C171.52 49.8131 171.612 49.366 171.612 48.8294V48.0245Z" fill="#808184"/>
<path d="M174.725 42.8374L176.282 42.5691V44.626H179.121L178.846 45.878H176.282V49.4553C176.282 49.813 176.282 50.0813 176.374 50.2602C176.374 50.439 176.465 50.6179 176.557 50.7073C176.648 50.7967 176.832 50.8862 177.015 50.8862C177.198 50.8862 177.473 50.9756 177.747 50.9756H179.121L178.846 52.2276H177.747C177.106 52.2276 176.648 52.2276 176.282 52.1382C175.916 52.0488 175.549 51.8699 175.366 51.691C175.183 51.5122 175 51.1545 174.908 50.8862C174.817 50.5284 174.817 50.0813 174.817 49.5447L174.725 42.8374Z" fill="#808184"/>
<path d="M182.143 42.3902C182.143 42.748 182.051 43.0163 181.868 43.1057C181.685 43.2845 181.502 43.374 181.136 43.374C180.769 43.374 180.495 43.2845 180.403 43.1057C180.22 42.9268 180.128 42.748 180.128 42.3902C180.128 42.0325 180.22 41.7642 180.403 41.6748C180.586 41.4959 180.769 41.4065 181.136 41.4065C181.502 41.4065 181.777 41.4959 181.868 41.6748C182.143 41.7642 182.143 42.0325 182.143 42.3902ZM180.403 44.626H181.96V52.2276H180.403V44.626Z" fill="#808184"/>
<path d="M187.179 45.8782C186.722 45.8782 186.447 45.8782 186.172 45.9676C185.897 45.9676 185.714 46.1465 185.531 46.2359C185.348 46.4147 185.256 46.5936 185.256 46.8619C185.256 47.1302 185.165 47.4879 185.165 48.0245V48.8294C185.165 49.2765 185.165 49.7237 185.256 49.992C185.348 50.2603 185.44 50.5286 185.623 50.618C185.806 50.7969 185.989 50.8863 186.264 50.8863C186.538 50.8863 186.813 50.9757 187.271 50.9757C187.821 50.9757 188.278 50.9757 188.553 50.9757C188.828 50.9757 189.194 50.9757 189.377 50.9757L189.103 52.2278C188.828 52.2278 188.553 52.2278 188.187 52.2278C187.821 52.2278 187.546 52.2278 187.271 52.2278C186.63 52.2278 185.989 52.1383 185.531 52.0489C185.073 51.9595 184.707 51.6912 184.432 51.4229C184.158 51.1546 183.974 50.7969 183.791 50.3497C183.7 49.9025 183.608 49.366 183.608 48.7399V47.9351C183.608 47.3091 183.7 46.7725 183.791 46.3253C183.883 45.8782 184.158 45.5204 184.432 45.2521C184.707 44.9838 185.073 44.805 185.531 44.6261C185.989 44.4473 186.538 44.4473 187.271 44.4473C187.546 44.4473 187.912 44.4473 188.278 44.4473C188.645 44.4473 189.011 44.4473 189.377 44.4473L189.103 45.6993C188.645 45.6993 188.37 45.6993 188.095 45.6993C187.729 45.8782 187.454 45.8782 187.179 45.8782Z" fill="#808184"/>
<path d="M194.963 47.7561C195.421 47.7561 195.788 47.8455 196.062 48.0243C196.337 48.2032 196.52 48.3821 196.703 48.5609C196.886 48.7398 196.978 49.0081 196.978 49.187C197.07 49.4552 197.07 49.6341 197.07 49.9024V50.0813C197.07 50.7967 196.795 51.3333 196.337 51.691C195.788 52.0487 195.055 52.317 193.956 52.317C193.498 52.317 192.949 52.317 192.399 52.317C191.758 52.317 191.209 52.317 190.568 52.317L190.842 51.065C191.392 51.065 191.941 51.065 192.491 51.065C193.04 51.065 193.59 51.065 194.048 51.065C194.597 51.065 195.055 50.9756 195.238 50.8861C195.421 50.7967 195.604 50.5284 195.604 50.1707C195.604 50.0813 195.604 49.9024 195.604 49.813C195.604 49.7235 195.513 49.6341 195.421 49.5447C195.33 49.4552 195.238 49.3658 195.055 49.3658C194.872 49.3658 194.689 49.2764 194.505 49.2764L192.674 49.0975C192.308 49.0975 191.941 49.0081 191.758 48.8292C191.484 48.7398 191.3 48.5609 191.117 48.3821C190.934 48.2032 190.843 48.0244 190.751 47.7561C190.659 47.4878 190.659 47.3089 190.659 47.0406V46.7723C190.659 46.1463 190.934 45.6097 191.392 45.1626C191.85 44.8048 192.674 44.626 193.681 44.626C194.139 44.626 194.689 44.626 195.147 44.626C195.696 44.626 196.245 44.626 196.886 44.626L196.612 45.878C196.154 45.878 195.788 45.878 195.513 45.878C195.147 45.878 194.872 45.878 194.689 45.878C194.506 45.878 194.231 45.878 194.048 45.878C193.864 45.878 193.681 45.878 193.498 45.878C192.949 45.878 192.582 45.9674 192.399 46.0569C192.216 46.1463 192.125 46.4146 192.125 46.6829C192.125 46.7723 192.125 46.9512 192.125 47.0406C192.125 47.13 192.216 47.2195 192.308 47.3089C192.399 47.3983 192.491 47.3983 192.674 47.4878C192.857 47.5772 193.04 47.5772 193.223 47.5772L194.963 47.7561Z" fill="#808184"/>
</svg>
